<svg xmlns="http://www.w3.org/2000/svg" width="29.94" height="29.94" viewBox="0 0 29.94 29.94">
  <path id="Path_39" data-name="Path 39" d="M14.97,2.661a45.9,45.9,0,0,1,5.988.166,7.715,7.715,0,0,1,2.828.5,5.842,5.842,0,0,1,2.828,2.828,7.715,7.715,0,0,1,.5,2.828c0,1.5.166,2,.166,5.988a45.9,45.9,0,0,1-.166,5.988,7.715,7.715,0,0,1-.5,2.828,5.842,5.842,0,0,1-2.828,2.828,7.715,7.715,0,0,1-2.828.5c-1.5,0-2,.166-5.988.166a45.9,45.9,0,0,1-5.988-.166,7.715,7.715,0,0,1-2.828-.5,5.842,5.842,0,0,1-2.828-2.828,7.715,7.715,0,0,1-.5-2.828c0-1.5-.166-2-.166-5.988a45.9,45.9,0,0,1,.166-5.988,7.715,7.715,0,0,1,.5-2.828A5.974,5.974,0,0,1,4.491,4.491,2.812,2.812,0,0,1,6.154,3.327a7.715,7.715,0,0,1,2.828-.5,45.9,45.9,0,0,1,5.988-.166M14.97,0A49.147,49.147,0,0,0,8.816.166,10.269,10.269,0,0,0,5.156.832,6.511,6.511,0,0,0,2.5,2.5,6.511,6.511,0,0,0,.832,5.156,7.579,7.579,0,0,0,.166,8.816,49.147,49.147,0,0,0,0,14.97a49.147,49.147,0,0,0,.166,6.154,10.269,10.269,0,0,0,.665,3.659A6.511,6.511,0,0,0,2.5,27.445a6.511,6.511,0,0,0,2.661,1.663,10.269,10.269,0,0,0,3.659.665,49.146,49.146,0,0,0,6.154.166,49.146,49.146,0,0,0,6.154-.166,10.269,10.269,0,0,0,3.659-.665,6.979,6.979,0,0,0,4.325-4.325,10.269,10.269,0,0,0,.665-3.659c0-1.663.166-2.162.166-6.154a49.146,49.146,0,0,0-.166-6.154,10.269,10.269,0,0,0-.665-3.659A6.511,6.511,0,0,0,27.445,2.5,6.511,6.511,0,0,0,24.784.832,10.269,10.269,0,0,0,21.124.166,49.147,49.147,0,0,0,14.97,0m0,7.319A7.528,7.528,0,0,0,7.319,14.97,7.651,7.651,0,1,0,14.97,7.319m0,12.641a4.9,4.9,0,0,1-4.99-4.99,4.9,4.9,0,0,1,4.99-4.99,4.9,4.9,0,0,1,4.99,4.99,4.9,4.9,0,0,1-4.99,4.99m7.984-14.8a1.83,1.83,0,1,0,1.83,1.83,1.846,1.846,0,0,0-1.83-1.83" fill="#fff" fill-rule="evenodd"/>
</svg>
