<svg xmlns="http://www.w3.org/2000/svg" width="29.94" height="24.285" viewBox="0 0 29.94 24.285">
  <path id="Path_38" data-name="Path 38" d="M47.481,26.285c11.311,0,17.465-9.315,17.465-17.465V7.988a13.52,13.52,0,0,0,2.994-3.16,13.808,13.808,0,0,1-3.493,1A6.471,6.471,0,0,0,67.108,2.5,15.257,15.257,0,0,1,63.283,4a5.94,5.94,0,0,0-4.491-2,6.249,6.249,0,0,0-6.154,6.154A3.243,3.243,0,0,0,52.8,9.485,17.2,17.2,0,0,1,40.162,3a6.37,6.37,0,0,0-.832,3.16,6.609,6.609,0,0,0,2.661,5.156,5.607,5.607,0,0,1-2.828-.832h0a6.079,6.079,0,0,0,4.99,5.988,5.128,5.128,0,0,1-1.663.166,2.831,2.831,0,0,1-1.164-.166A6.3,6.3,0,0,0,47.148,20.8,12.558,12.558,0,0,1,39.5,23.457a4.605,4.605,0,0,1-1.5-.166,15.7,15.7,0,0,0,9.481,2.994" transform="translate(-38 -2)" fill="#fff" fill-rule="evenodd"/>
</svg>
